<?xml version="1.0" standalone="no"?>
<!DOCTYPE svg PUBLIC "-//W3C//DTD SVG 20010904//EN"
 "http://www.w3.org/TR/2001/REC-SVG-20010904/DTD/svg10.dtd">
<svg version="1.0" xmlns="http://www.w3.org/2000/svg"
 width="210.000000pt" height="210.000000pt" viewBox="0 0 210.000000 210.000000"
 preserveAspectRatio="xMidYMid meet">
<metadata>
Created by potrace 1.11, written by Peter Selinger 2001-2013
</metadata>
<g transform="translate(0.000000,210.000000) scale(0.100000,-0.100000)"
fill="#000000" stroke="none">
<path d="M1033 2058 c-38 -10 -65 -52 -53 -83 4 -11 3 -26 -4 -35 -10 -13 -9
-13 7 -1 36 28 28 0 -19 -69 -74 -107 -163 -243 -171 -260 -17 -40 -33 -47
-111 -50 -89 -2 -161 -6 -289 -14 -74 -5 -93 -3 -93 7 0 19 -43 57 -64 57 -49
0 -101 -65 -85 -107 5 -14 6 -29 3 -35 -4 -7 -2 -8 5 -4 6 4 18 3 25 -3 14
-12 43 -11 63 2 7 4 23 -12 42 -43 17 -27 27 -50 23 -50 -4 0 -2 -4 4 -8 21
-13 76 -121 68 -133 -4 -7 -3 -9 4 -5 12 7 94 -135 90 -156 -2 -7 -12 -26 -24
-43 -11 -16 -29 -46 -38 -65 -40 -77 -84 -169 -116 -237 -30 -65 -36 -72 -57
-67 -28 7 -51 -10 -68 -50 -22 -53 14 -109 70 -111 26 0 65 38 65 64 0 23 18
32 43 19 9 -5 17 -5 17 -1 0 4 41 8 92 8 51 0 118 2 150 5 49 5 58 3 53 -9 -4
-10 1 -9 16 5 22 19 22 19 16 -1 -6 -17 -5 -18 5 -5 18 21 47 19 65 -5 19 -25
64 -113 62 -122 0 -3 6 -10 15 -15 9 -5 14 -13 11 -19 -4 -5 -1 -9 4 -9 6 0
11 -4 11 -9 0 -5 18 -39 40 -75 22 -36 40 -70 40 -76 0 -5 3 -10 8 -10 4 0 15
-14 24 -30 9 -17 14 -30 9 -30 -4 0 -14 -15 -23 -33 -15 -30 -15 -37 -1 -65 9
-18 22 -32 29 -32 8 0 14 -5 14 -10 0 -6 17 -9 39 -8 22 2 38 5 36 7 -2 2 5
12 16 24 10 11 19 26 19 33 0 19 -20 68 -30 74 -6 3 -2 20 8 36 9 17 36 65 60
108 26 45 48 74 54 70 6 -4 8 -2 4 4 -7 12 13 62 26 62 4 0 8 6 8 13 0 7 16
38 36 70 l35 57 75 -2 c42 -2 74 -7 74 -13 0 -6 3 -5 8 1 6 10 72 12 92 4 3
-1 10 -1 15 0 38 8 45 8 51 -1 4 -6 11 -6 20 2 11 9 14 8 14 -2 0 -8 3 -10 10
-3 14 14 100 5 100 -11 0 -22 51 -75 72 -75 63 0 102 65 72 121 -14 28 -57 54
-73 44 -10 -6 -51 23 -51 36 0 11 -41 96 -87 179 -17 30 -45 81 -62 113 -18
32 -34 67 -36 78 -4 18 75 155 98 170 5 3 8 9 7 13 -2 14 34 65 43 59 6 -3 8
-2 5 3 -8 12 37 90 50 87 5 -1 8 7 5 17 -4 14 0 20 11 20 10 0 14 4 11 10 -4
6 5 7 23 4 61 -12 101 34 78 90 -16 40 -42 56 -86 56 -24 0 -35 -7 -48 -31
l-17 -31 -70 6 c-38 3 -86 8 -105 10 -19 3 -87 8 -150 11 -63 3 -122 8 -130
11 -13 4 -109 155 -208 327 l-24 41 20 35 c19 34 20 38 4 58 -23 30 -60 42
-99 31z"/>
<path d="M535 561 c-3 -5 -2 -12 3 -15 5 -3 9 1 9 9 0 17 -3 19 -12 6z"/>
<path d="M735 560 c-3 -5 -1 -10 4 -10 6 0 11 5 11 10 0 6 -2 10 -4 10 -3 0
-8 -4 -11 -10z"/>
<path d="M1690 566 c0 -2 7 -7 16 -10 8 -3 12 -2 9 4 -6 10 -25 14 -25 6z"/>
<path d="M1735 560 c3 -5 8 -10 11 -10 2 0 4 5 4 10 0 6 -5 10 -11 10 -5 0 -7
-4 -4 -10z"/>
</g>
</svg>
